# xmcd
#
# Track frame offsets:
#	150
#	3115
#	12787
#	32967
#	47620
#	65927
#	96392
#	117595
#	135000
#	155847
#	179742
#	207575
#	228157
#	251877
#	279375
#	296305
#
# Disc length: 4196 seconds
#
# Revision: 0
# Processed by: cddbd v1.5.2PL0 Copyright (c) Steve Scherf et al.
# Submitted via: dBpowerAMP V4.0
#
DISCID=e8106210
DTITLE=Johhny Guiat Knox - Hoboin
DYEAR=1900
DGENRE=Blues
TTITLE0=Introduction 
TTITLE1=Guitar Rag
TTITLE2=Step It Up And Go
TTITLE3=Untrue Blues
TTITLE4=Love With a Feeling
TTITLE5=Johhny's Hobo Blues
TTITLE6=Take A Little Walk Wiith Me
TTITLE7=Sweet Honey Hole
TTITLE8=Kind Hearted Woman
TTITLE9=Key To The Highway
TTITLE10=I'm In The Mood
TTITLE11=Mojo Hand
TTITLE12=Coastin' Blues
TTITLE13=I Believe I'll Dust My Room
TTITLE14=Railroad Blues
TTITLE15=Steel Guitar Rag
EXTD=
EXTT0=
EXTT1=
EXTT2=
EXTT3=
EXTT4=
EXTT5=
EXTT6=
EXTT7=
EXTT8=
EXTT9=
EXTT10=
EXTT11=
EXTT12=
EXTT13=
EXTT14=
EXTT15=
PLAYORDER=
